<svg width="454" height="94" viewBox="0 0 454 94" fill="none" xmlns="http://www.w3.org/2000/svg">
<path d="M32.9697 50.5352C32.9697 49.5684 32.4684 48.7627 31.4658 48.1182C30.4632 47.4378 29.2458 47.0977 27.8135 47.0977C25.1279 47.0977 22.693 47.8854 20.5088 49.4609C18.3245 51.0007 16.6058 53.2386 15.3525 56.1748C14.1351 59.0752 13.5264 62.3695 13.5264 66.0576C13.5264 69.4593 14.2425 72.5566 15.6748 75.3496C17.1429 78.1068 19.0944 80.2552 21.5293 81.7949C24 83.3346 26.6855 84.1045 29.5859 84.1045C31.985 84.1045 34.4915 83.5674 37.1055 82.4932C39.7552 81.3831 41.8678 79.9688 43.4434 78.25L45.3232 80.7744C42.4945 84.8564 39.0928 87.9896 35.1182 90.1738C31.1794 92.3581 27.1689 93.4502 23.0869 93.4502C19.2913 93.4502 15.6569 92.4118 12.1836 90.335C8.74609 88.2581 5.98893 85.4473 3.91211 81.9023C1.87109 78.3216 0.850586 74.4186 0.850586 70.1934C0.850586 66.7559 1.47721 63.4795 2.73047 60.3643C3.98372 57.249 5.77409 54.474 8.10156 52.0391C10.4648 49.5684 13.2578 47.6348 16.4805 46.2383C19.7031 44.8418 23.266 44.1436 27.1689 44.1436C30.32 44.1436 33.1846 44.627 35.7627 45.5938C38.3408 46.5247 40.3639 47.8317 41.832 49.5146C43.3359 51.1976 44.0879 53.0417 44.0879 55.0469C44.0879 56.8014 43.4434 58.2516 42.1543 59.3975C40.8652 60.5433 39.3434 61.1162 37.5889 61.1162C35.9775 61.1162 34.6348 60.5612 33.5605 59.4512C32.5221 58.3053 32.0029 57.0879 32.0029 55.7988C32.0029 55.5482 32.1641 54.7425 32.4863 53.3818C32.8086 51.9854 32.9697 51.0365 32.9697 50.5352ZM33.7754 55.7988C33.7754 56.9447 34.2051 57.804 35.0645 58.377C35.9596 58.9499 36.9264 59.2363 37.9648 59.2363C38.2871 59.2363 39.1644 59.0931 40.5967 58.8066C38.3766 58.3411 37.2666 57.1953 37.2666 55.3691C37.2666 55.2259 37.3382 54.8141 37.4814 54.1338C37.6605 53.4535 37.75 52.8805 37.75 52.415C37.75 50.4456 36.3535 48.9417 33.5605 47.9033C34.3483 49.0133 34.7422 50.0339 34.7422 50.9648C34.7422 51.5736 34.5811 52.3971 34.2588 53.4355C33.9365 54.474 33.7754 55.2617 33.7754 55.7988ZM18.6826 47.4736C15.2451 48.7627 12.3268 50.5352 9.92773 52.791C7.56445 55.0469 5.75618 57.6787 4.50293 60.6865C3.24967 63.6585 2.62305 66.6842 2.62305 69.7637C2.62305 73.9531 3.62565 77.7129 5.63086 81.043C7.63607 84.373 10.2679 86.9691 13.5264 88.8311C16.8206 90.6572 20.1507 91.5703 23.5166 91.5703C28.4222 91.5703 33.0413 89.959 37.374 86.7363C32.6833 88.276 28.9056 89.0459 26.041 89.0459C22.3887 89.0459 19.0407 88.2223 15.9971 86.5752C12.9535 84.9281 10.5365 82.6364 8.74609 79.7002C6.95573 76.764 6.06055 73.4876 6.06055 69.8711C6.06055 65.6816 7.13477 61.6712 9.2832 57.8398C11.4674 53.9727 14.6006 50.5173 18.6826 47.4736ZM108.487 89.0459V92H82.1689V89.0459C83.5654 88.9743 84.6217 88.8848 85.3379 88.7773C86.0898 88.6341 86.7523 88.3656 87.3252 87.9717C87.8981 87.5778 88.3099 86.987 88.5605 86.1992C88.847 85.3757 88.9902 84.3372 88.9902 83.084V57.8936C88.9902 54.5635 88.2383 52.1286 86.7344 50.5889C85.2305 49.0133 83.4222 48.2256 81.3096 48.2256C77.7646 48.2256 73.5573 50.4277 68.6875 54.832V83.6211C68.6875 85.6979 69.1709 87.0944 70.1377 87.8105C71.1403 88.5267 73.0739 88.9385 75.9385 89.0459V92H49.4053V89.0459C51.8044 88.9743 53.541 88.6878 54.6152 88.1865C55.6895 87.6494 56.2266 86.3962 56.2266 84.4268V32.0586C56.2266 27.153 53.7021 24.0736 48.6533 22.8203V20.6182L66.4854 14.9785H68.6875V51.1797C71.2656 48.9238 74.0586 47.1872 77.0664 45.9697C80.0742 44.7523 83.0999 44.1436 86.1436 44.1436C89.2946 44.1436 91.998 44.6986 94.2539 45.8086C96.5456 46.9186 98.318 48.5837 99.5713 50.8037C100.825 52.988 101.451 55.6914 101.451 58.9141V81.2041C101.451 83.3525 101.505 84.8743 101.612 85.7695C101.756 86.6647 102.239 87.4346 103.062 88.0791C103.922 88.7236 105.318 89.0459 107.252 89.0459H108.487ZM90.7627 55.7988V83.7285C90.7627 85.0892 90.6016 86.1097 90.2793 86.79C89.957 87.4704 89.4199 88.1865 88.668 88.9385C90.9596 88.9027 92.4814 88.3477 93.2334 87.2734C94.0212 86.1992 94.415 84.4805 94.415 82.1172V59.2363C94.415 56.4434 94.2181 54.277 93.8242 52.7373C93.4303 51.1618 92.5531 49.8906 91.1924 48.9238C89.8317 47.9212 87.7191 47.3483 84.8545 47.2051C88.7933 48.6732 90.7627 51.5378 90.7627 55.7988ZM57.999 32.0586V82.9766C57.999 84.5521 57.8916 85.7337 57.6768 86.5215C57.4977 87.2734 57.0859 88.0075 56.4414 88.7236H57.8916C58.7152 88.7236 59.5387 88.276 60.3623 87.3809C61.1859 86.4499 61.5977 85.125 61.5977 83.4062V31.6289C61.5977 29.1224 61.2754 27.2067 60.6309 25.8818C60.0579 24.736 59.1807 23.805 57.999 23.0889C56.8532 22.3727 55.6357 22.0146 54.3467 22.0146C53.7738 22.0146 52.7891 22.14 51.3926 22.3906C54.0065 23.3574 55.7611 24.6107 56.6562 26.1504C57.5514 27.6543 57.999 29.6237 57.999 32.0586ZM125.567 50.4277C125.567 50.571 125.8 51.0902 126.266 51.9854C126.731 52.8805 126.964 53.722 126.964 54.5098C126.964 56.0495 126.319 57.4281 125.03 58.6455C123.777 59.8271 122.201 60.418 120.304 60.418C118.478 60.418 117.027 59.9525 115.953 59.0215C114.879 58.0547 114.342 56.9447 114.342 55.6914C114.342 53.8294 115.237 52.0033 117.027 50.2129C118.854 48.4225 121.342 46.9723 124.493 45.8623C127.68 44.7165 131.189 44.1436 135.021 44.1436C137.813 44.1436 140.41 44.627 142.809 45.5938C145.243 46.5605 147.177 48.0286 148.609 49.998C150.042 51.9674 150.758 54.3486 150.758 57.1416V84.4268C150.758 86.611 151.384 87.7031 152.638 87.7031C153.39 87.7031 154.303 87.1123 155.377 85.9307L157.364 88.2402C155.61 89.9948 153.98 91.3197 152.477 92.2148C151.008 93.11 149.254 93.5576 147.213 93.5576C144.85 93.5576 143.006 93.0384 141.681 92C140.356 90.9258 139.425 89.2786 138.888 87.0586C133.946 91.3197 129.059 93.4502 124.225 93.4502C120.787 93.4502 118.048 92.555 116.007 90.7646C114.002 88.9743 112.999 86.7005 112.999 83.9434C112.999 81.4727 113.608 79.3779 114.825 77.6592C116.078 75.9046 117.708 74.3649 119.713 73.04C121.754 71.6794 124.744 69.9785 128.683 67.9375C132.621 65.8607 135.862 64.0882 138.404 62.6201V54.5098C138.404 52.0749 137.849 50.2308 136.739 48.9775C135.629 47.7243 133.964 47.0977 131.744 47.0977C129.811 47.0977 128.289 47.4557 127.179 48.1719C126.104 48.8522 125.567 49.6042 125.567 50.4277ZM140.177 58.001V79.2168C140.177 83.4062 140.624 86.5394 141.52 88.6162C142.415 90.6572 144.169 91.6777 146.783 91.6777C147.965 91.6777 148.914 91.5345 149.63 91.248C147.481 90.9258 145.96 90.0664 145.064 88.6699C144.169 87.2734 143.722 85.0892 143.722 82.1172V57.4639C143.722 53.7399 143.185 51.1797 142.11 49.7832C141.072 48.3509 139.264 47.4915 136.686 47.2051C138.082 47.9212 139.013 48.9596 139.479 50.3203C139.944 51.681 140.177 54.2412 140.177 58.001ZM138.404 83.5137V66.2725C133.821 68.8506 130.616 71.1781 128.79 73.2549C127 75.3317 126.104 77.8382 126.104 80.7744C126.104 82.7438 126.642 84.2656 127.716 85.3398C128.79 86.4141 130.043 86.9512 131.476 86.9512C133.731 86.9512 136.041 85.8053 138.404 83.5137ZM128.951 90.9258C125.693 90.9258 123.079 90.2633 121.109 88.9385C119.176 87.6136 118.209 85.6979 118.209 83.1914C118.209 81.3652 118.674 79.6465 119.605 78.0352C120.572 76.388 122.005 74.5618 123.902 72.5566C121.002 74.2396 118.746 75.9583 117.135 77.7129C115.559 79.4674 114.771 81.5443 114.771 83.9434C114.771 86.1276 115.72 87.9538 117.618 89.4219C119.552 90.8542 121.646 91.5703 123.902 91.5703C126.087 91.5703 127.77 91.3555 128.951 90.9258ZM123.902 57.0342C122.613 57.1416 121.629 56.891 120.948 56.2822C120.268 55.6735 119.928 54.9574 119.928 54.1338C119.928 53.0238 120.232 52.0391 120.841 51.1797C121.45 50.2845 122.506 49.0133 124.01 47.3662C121.467 48.6553 119.516 49.9443 118.155 51.2334C116.795 52.5225 116.114 53.9727 116.114 55.584C116.114 56.3001 116.472 56.9805 117.188 57.625C117.94 58.2337 118.818 58.5381 119.82 58.5381C121.539 58.5381 122.9 58.0368 123.902 57.0342ZM167.73 79.002V48.4404H161.983V45.7012C165.134 43.3379 167.498 41.5296 169.073 40.2764C170.649 38.9873 172.135 37.555 173.531 35.9795C174.964 34.404 176.181 32.7568 177.184 31.0381H180.03V45.0566H193.351V48.4404H180.03V80.5596C180.03 82.9229 180.317 84.6953 180.89 85.877C181.463 87.0228 182.429 87.5957 183.79 87.5957C185.079 87.5957 186.261 87.2376 187.335 86.5215C188.445 85.8053 189.788 84.6953 191.363 83.1914L193.351 85.2861C190.665 88.0433 188.194 90.1022 185.938 91.4629C183.718 92.7878 181.158 93.4502 178.258 93.4502C175.501 93.4502 173.352 92.8415 171.812 91.624C170.273 90.4066 169.199 88.7594 168.59 86.6826C168.017 84.57 167.73 82.0098 167.73 79.002ZM172.994 39.3096L169.449 42.2637V77.9277C169.449 82.6901 170.058 86.1634 171.275 88.3477C172.529 90.4961 174.749 91.5703 177.936 91.5703C179.618 91.5703 181.301 91.3018 182.984 90.7646C179.726 90.8721 177.237 90.1201 175.519 88.5088C173.836 86.8617 172.994 84.1403 172.994 80.3447V39.3096Z" fill="#1EB8CB"/>
<path d="M256.988 8.4375H246.738V76.875C246.738 80.125 247.28 82.3333 248.363 83.5C249.488 84.625 251.134 85.1875 253.301 85.1875H258.676V92H214.488V85.1875H219.863C222.072 85.1875 223.717 84.625 224.801 83.5C225.884 82.3333 226.426 80.125 226.426 76.875V8.4375H216.176C212.509 8.4375 209.905 9.1875 208.363 10.6875C206.822 12.1875 205.884 14.4583 205.551 17.5L204.676 25.4375H196.051L196.738 0.625H276.488L277.113 25.4375H268.551L267.613 17.5C267.28 14.4583 266.342 12.1875 264.801 10.6875C263.301 9.1875 260.697 8.4375 256.988 8.4375ZM314.113 15.6875V45.5625L333.988 23.875C336.363 21.375 338.176 19.1042 339.426 17.0625C340.676 15.0208 341.301 13 341.301 11C341.301 9.58333 340.759 8.60417 339.676 8.0625C338.592 7.52083 336.738 7.25 334.113 7.25V0.625H368.801V7.25C365.259 7.25 362.009 8.33333 359.051 10.5C356.092 12.625 353.197 15.2917 350.363 18.5L333.488 37.0625L357.301 74.875C359.551 78.5 361.78 81.125 363.988 82.75C366.197 84.375 368.822 85.1875 371.863 85.1875H372.363V92H365.488C363.863 92 362.322 91.9792 360.863 91.9375C359.447 91.8542 358.134 91.7708 356.926 91.6875C352.051 91.2708 348.301 90.4167 345.676 89.125C343.717 88.1667 342.072 86.9375 340.738 85.4375C339.447 83.8958 338.217 82.1667 337.051 80.25L319.801 50.8125L314.113 55.25V76.875C314.113 80.1667 314.676 82.375 315.801 83.5C316.967 84.625 318.634 85.1875 320.801 85.1875H326.176V92H281.988V85.1875H287.363C289.572 85.1875 291.217 84.6875 292.301 83.6875C293.384 82.6458 293.926 80.6042 293.926 77.5625V15.1875C293.926 12.1458 293.363 10.0833 292.238 9C291.155 7.91667 289.53 7.375 287.363 7.375H281.988V0.625H326.176V7.375H320.801C318.634 7.375 316.967 7.9375 315.801 9.0625C314.676 10.1875 314.113 12.3958 314.113 15.6875ZM449.988 23.875C449.988 26.7083 449.592 29.1875 448.801 31.3125C448.051 33.3958 446.967 35.1875 445.551 36.6875C444.134 38.2292 442.426 39.5417 440.426 40.625C438.467 41.7083 436.28 42.625 433.863 43.375V44C439.947 45.5417 444.759 48.1667 448.301 51.875C450.051 53.7917 451.405 56 452.363 58.5C453.363 61 453.863 63.8125 453.863 66.9375C453.863 83.6458 441.655 92 417.238 92H375.988V85.1875H381.238C383.447 85.1875 385.113 84.625 386.238 83.5C387.363 82.375 387.926 80.1667 387.926 76.875V15.5625C387.926 12.5208 387.342 10.3958 386.176 9.1875C385.009 7.97917 383.363 7.375 381.238 7.375H375.988V0.625H413.363C425.53 0.625 434.676 2.5 440.801 6.25C446.926 10 449.988 15.875 449.988 23.875ZM412.738 8.4375H408.113V40.3125H412.988C418.822 40.3125 422.905 39.0208 425.238 36.4375C426.447 35.1042 427.28 33.4167 427.738 31.375C428.238 29.2917 428.488 26.7917 428.488 23.875C428.488 18.0833 427.301 14.0625 424.926 11.8125C422.551 9.5625 418.488 8.4375 412.738 8.4375ZM416.863 48.125H408.113V84.1875H416.613C422.322 84.1875 426.363 82.8542 428.738 80.1875C431.113 77.5625 432.301 73 432.301 66.5C432.301 63.375 432.051 60.6667 431.551 58.375C431.051 56.0417 430.197 54.125 428.988 52.625C427.78 51.125 426.197 50 424.238 49.25C422.28 48.5 419.822 48.125 416.863 48.125Z" fill="#19C37D"/>
</svg>
