<svg width="249" height="261" viewBox="0 0 249 261" fill="none" xmlns="http://www.w3.org/2000/svg">
<circle cx="125" cy="123" r="90" fill="white"/>
<path d="M45.3154 162.131L102.968 183.308L24.4795 219.908L45.3154 162.131Z" fill="white"/>
<path d="M170.875 85.4375H160.625V153.875C160.625 157.125 161.167 159.333 162.25 160.5C163.375 161.625 165.021 162.188 167.188 162.188H172.562V169H128.375V162.188H133.75C135.958 162.188 137.604 161.625 138.688 160.5C139.771 159.333 140.312 157.125 140.312 153.875V85.4375H130.062C126.396 85.4375 123.792 86.1875 122.25 87.6875C120.708 89.1875 119.771 91.4583 119.438 94.5L118.562 102.438H109.938L110.625 77.625H190.375L191 102.438H182.438L181.5 94.5C181.167 91.4583 180.229 89.1875 178.688 87.6875C177.188 86.1875 174.583 85.4375 170.875 85.4375Z" fill="#19C37D"/>
<path d="M86.35 123.89C86.0998 122.956 85.4071 122.308 84.2718 121.945C83.1273 121.547 81.8633 121.533 80.4798 121.904C77.8858 122.599 75.7377 123.99 74.0357 126.077C72.3244 128.13 71.2434 130.737 70.7928 133.897C70.3675 137.014 70.6321 140.353 71.5867 143.916C72.4671 147.202 73.9605 150.008 76.0669 152.335C78.1986 154.618 80.6396 156.189 83.3901 157.046C86.1751 157.893 88.9684 157.942 91.7699 157.191C94.0873 156.57 96.3694 155.403 98.6162 153.689C100.888 151.931 102.563 150.018 103.64 147.95L106.109 149.902C104.433 154.577 101.958 158.483 98.6845 161.622C95.4452 164.751 91.8541 166.844 87.9112 167.901C84.245 168.883 80.4656 168.821 76.5731 167.713C72.7152 166.597 69.3245 164.596 66.401 161.709C63.5027 158.779 61.5068 155.273 60.4132 151.191C59.5236 147.871 59.2808 144.544 59.6851 141.211C60.0894 137.877 61.1005 134.733 62.7185 131.779C64.3618 128.781 66.5591 126.19 69.3105 124.007C72.0619 121.824 75.3226 120.228 79.0926 119.218C82.1363 118.402 85.0284 118.127 87.7689 118.394C90.5001 118.626 92.7926 119.365 94.6462 120.611C96.5345 121.847 97.7381 123.433 98.2571 125.37C98.7112 127.065 98.464 128.633 97.5154 130.073C96.5668 131.514 95.2451 132.461 93.5504 132.915C91.9939 133.332 90.5533 133.143 89.2284 132.349C87.9288 131.511 87.1122 130.47 86.7785 129.225C86.7136 128.982 86.6608 128.162 86.6199 126.765C86.5697 125.332 86.4798 124.374 86.35 123.89ZM88.4906 128.766C88.7871 129.873 89.4246 130.591 90.403 130.922C91.416 131.244 92.4239 131.271 93.427 131.002C93.7383 130.918 94.5486 130.553 95.8579 129.906C93.593 130.031 92.2243 129.211 91.7516 127.447C91.7146 127.309 91.6772 126.892 91.6394 126.198C91.6363 125.495 91.5745 124.918 91.454 124.469C90.9443 122.566 89.2061 121.475 86.2396 121.195C87.2878 122.063 87.9324 122.947 88.1733 123.846C88.3309 124.434 88.3884 125.271 88.3459 126.358C88.3033 127.444 88.3516 128.247 88.4906 128.766ZM71.7574 124.631C68.7706 126.765 66.4105 129.233 64.677 132.033C62.9781 134.823 61.9127 137.833 61.4806 141.063C61.0392 144.258 61.2171 147.343 62.0141 150.318C63.0984 154.364 65.04 157.736 67.8387 160.434C70.6375 163.132 73.8516 164.958 77.4809 165.913C81.1356 166.825 84.5885 166.845 87.8397 165.974C92.5781 164.704 96.6228 161.952 99.9738 157.718C95.8414 160.419 92.3917 162.14 89.6247 162.882C86.0968 163.827 82.6498 163.898 79.2836 163.095C75.9173 162.292 72.9896 160.704 70.5003 158.331C68.011 155.958 66.2983 153.025 65.3623 149.532C64.278 145.485 64.2776 141.333 65.3612 137.076C66.4701 132.776 68.6022 128.627 71.7574 124.631Z" fill="#83CAD2"/>
</svg>
